<?xml version="1.0" encoding="utf-8"?>
<svg viewBox="0 0 500 500" width="500pt" height="500pt" xmlns="http://www.w3.org/2000/svg" xmlns:bx="https://boxy-svg.com">
  <path class="st0" d="M 207.656 144.538 L 207.387 144 L 193.671 144 L 136 258.996 L 211.427 258.996 L 201.097 238.394 L 167.086 238.394 C 172.703 227.217 178.378 215.868 183.86 204.903 C 189.305 194.034 194.902 182.8 200.481 171.739 L 244.032 258.418 L 244.302 258.958 L 265 258.958 L 207.656 144.538 Z" style="fill: rgb(255, 255, 255); visibility: hidden;">
    <title>Logo</title>
  </path>
  <rect style="fill: none; stroke: rgb(255, 255, 255); stroke-width: 8px;" x="4" y="4" width="492" height="492" rx="20" ry="20">
    <title>Border</title>
  </rect>
  <g transform="matrix(1, 0, 0, 1, 1, 9)" style="visibility: hidden;">
    <title>GEN</title>
    <path style="fill: none; stroke: rgb(255, 255, 255); stroke-width: 8px;" d="M 115 142 H 383 A 15 15 0 0 1 398 157 V 330 A 10 10 0 0 1 388 340 H 110 A 10 10 0 0 1 100 330 V 157 A 15 15 0 0 1 115 142 Z" bx:shape="rect 100 142 298 198 15 15 10 10 1@c68a8a5e">
      <title>Cartridge</title>
    </path>
    <path style="stroke: rgb(255, 255, 255); stroke-width: 8px; fill: none;" d="M 140 142 H 358 V 307 A 10 10 0 0 1 348 317 H 150 A 10 10 0 0 1 140 307 V 142 Z" bx:shape="rect 140 142 218 175 0 0 10 10 1@8d080066">
      <title>Sticker</title>
    </path>
    <linearGradient id="SVGID_1_" gradientUnits="userSpaceOnUse" x1="-412.45" y1="599.1" x2="-412.45" y2="213.1" gradientTransform="matrix(1, 0, 0, -1, -213.229691, 616.028198)">
      <stop offset="0" style="stop-color:#8C1AE9"/>
      <stop offset="1" style="stop-color:#5303A6"/>
    </linearGradient>
    <linearGradient id="SVGID_2_" gradientUnits="userSpaceOnUse" x1="33.95" y1="599.1" x2="33.95" y2="213.1" gradientTransform="matrix(1, 0, 0, -1, -213.229691, 616.028198)">
      <stop offset="0" style="stop-color:#8C1AE9"/>
      <stop offset="1" style="stop-color:#5303A6"/>
    </linearGradient>
    <linearGradient id="SVGID_3_" gradientUnits="userSpaceOnUse" x1="433.95" y1="599.1" x2="433.95" y2="213.1" gradientTransform="matrix(1, 0, 0, -1, -213.229691, 616.028198)">
      <stop offset="0" style="stop-color:#8C1AE9"/>
      <stop offset="1" style="stop-color:#5303A6"/>
    </linearGradient>
    <linearGradient id="SVGID_4_" gradientUnits="userSpaceOnUse" x1="766.95" y1="599.1" x2="766.95" y2="213.1" gradientTransform="matrix(1, 0, 0, -1, -213.229691, 616.028198)">
      <stop offset="0" style="stop-color:#8C1AE9"/>
      <stop offset="1" style="stop-color:#5303A6"/>
    </linearGradient>
    <linearGradient id="SVGID_5_" gradientUnits="userSpaceOnUse" x1="1190.3501" y1="599.1" x2="1190.3501" y2="207.1" gradientTransform="matrix(1, 0, 0, -1, -213.229691, 616.028198)">
      <stop offset="0" style="stop-color:#8C1AE9"/>
      <stop offset="1" style="stop-color:#5303A6"/>
    </linearGradient>
    <linearGradient id="gradient-1" gradientUnits="userSpaceOnUse" x1="640" y1="698.9" x2="640.0001" y2="101.1" gradientTransform="matrix(0.192365, 0, 0, -0.192365, 76.386467, 269.443909)">
      <stop offset="0" style="stop-color:#8C1AE9"/>
      <stop offset="1" style="stop-color:#5303A6"/>
    </linearGradient>
    <path class="st0" d="M 255.103 180.93 L 254.873 180.47 L 243.178 180.47 L 194 278.53 L 258.318 278.53 L 249.509 260.961 L 220.507 260.961 C 225.296 251.43 230.135 241.753 234.811 232.403 C 239.454 223.135 244.227 213.555 248.984 204.123 L 286.121 278.036 L 286.351 278.497 L 304 278.497 L 255.103 180.93 Z" style="fill: rgb(255, 255, 255);">
      <title>Logo</title>
    </path>
    <path style="stroke-width: 8px; fill: rgb(255, 255, 255);" d="M 140 142 L 358 142 L 358 307 C 358 312.523 353.523 317 348 317 L 150 317 C 144.477 317 140 312.523 140 307 Z M 255.103 180.93 L 254.873 180.47 L 243.178 180.47 L 194 278.53 L 258.318 278.53 L 249.509 260.961 L 220.507 260.961 C 225.296 251.43 230.135 241.753 234.811 232.403 C 239.454 223.135 244.227 213.555 248.984 204.123 L 286.121 278.036 L 286.351 278.497 L 304 278.497 Z">
      <title>Logo Inverted</title>
    </path>
  </g>
  <g transform="matrix(1, 0, 0, 1, 2, -2)" style="visibility: hidden;">
    <title>NES</title>
    <path d="M 126 107 L 370 107 C 372.761 107 375 109.239 375 112 L 375 339 C 375 341.761 372.761 344 370 344 L 360 344 L 360 392 C 360 394.761 357.761 397 355 397 L 140 397 C 137.239 397 135 394.761 135 392 L 135 344 L 126 344 C 123.239 344 121 341.761 121 339 L 121 112 C 121 109.239 123.239 107 126 107 Z" style="fill: none; stroke: rgb(255, 255, 255); stroke-width: 8px;">
      <title>Cartridge</title>
    </path>
    <path style="fill: none; stroke: rgb(255, 255, 255); stroke-width: 8px;" d="M 222 107 H 342 V 299 A 5 5 0 0 1 337 304 H 227 A 5 5 0 0 1 222 299 V 107 Z" bx:shape="rect 222 107 120 197 0 0 5 5 1@5cb8b67e">
      <title>Sticker</title>
    </path>
    <path class="st0" d="M 286.438 170.176 L 286.271 169.842 L 277.765 169.842 L 242 241.158 L 288.777 241.158 L 282.371 228.382 L 261.277 228.382 C 264.761 221.449 268.279 214.412 271.681 207.612 C 275.058 200.871 278.529 193.904 281.988 187.045 L 308.996 240.798 L 309.164 241.134 L 322 241.134 L 286.438 170.176 Z" style="fill: rgb(255, 255, 255);">
      <title>Logo</title>
    </path>
    <path style="stroke-width: 8px; fill: rgb(255, 255, 255);" d="M 222 107 L 342 107 L 342 299 C 342 301.761 339.761 304 337 304 L 227 304 C 224.239 304 222 301.761 222 299 Z M 286.438 170.176 L 286.271 169.842 L 277.765 169.842 L 242 241.158 L 288.777 241.158 L 282.371 228.382 L 261.277 228.382 C 264.761 221.449 268.279 214.412 271.681 207.612 C 275.058 200.871 278.529 193.904 281.988 187.045 L 308.996 240.798 L 309.164 241.134 L 322 241.134 Z">
      <title>Logo Inverted</title>
    </path>
  </g>
  <g transform="matrix(1, 0, 0, 1, 5, 15.5)" style="visibility: hidden;">
    <title>SNES</title>
    <path d="M 95 140 L 138.5 140 L 138.5 139 C 138.5 136.239 140.739 134 143.5 134 L 346.5 134 C 349.261 134 351.5 136.239 351.5 139 L 351.5 140 L 395 140 C 397.761 140 400 142.239 400 145 L 400 330 C 400 332.761 397.761 335 395 335 L 95 335 C 92.239 335 90 332.761 90 330 L 90 145 C 90 142.239 92.239 140 95 140 Z" style="fill: none; stroke: rgb(255, 255, 255); stroke-width: 8px;">
      <title>Cartridge</title>
    </path>
    <path style="fill: none; stroke: rgb(255, 255, 255); stroke-width: 8px;" d="M 148 134 H 342 V 217 A 7 7 0 0 1 335 224 H 155 A 7 7 0 0 1 148 217 V 134 Z" bx:shape="rect 148 134 194 90 0 0 7 7 1@6639bf0f">
      <title>Sticker</title>
    </path>
    <path class="st0" d="M 248.606 150.298 L 248.47 150.028 L 241.559 150.028 L 212.5 207.972 L 250.506 207.972 L 245.3 197.591 L 228.164 197.591 C 230.994 191.959 233.853 186.241 236.616 180.716 C 239.36 175.238 242.18 169.579 244.991 164.006 L 266.935 207.681 L 267.071 207.952 L 277.5 207.952 L 248.606 150.298 Z" style="fill: rgb(255, 255, 255);">
      <title>Logo</title>
    </path>
    <path style="stroke-width: 8px; fill: rgb(255, 255, 255);" d="M 148 134 L 342 134 L 342 217 C 342 220.866 338.866 224 335 224 L 155 224 C 151.134 224 148 220.866 148 217 Z M 248.606 150.298 L 248.47 150.028 L 241.559 150.028 L 212.5 207.972 L 250.506 207.972 L 245.3 197.591 L 228.164 197.591 C 230.994 191.959 233.853 186.241 236.616 180.716 C 239.36 175.238 242.18 169.579 244.991 164.006 L 266.935 207.681 L 267.071 207.952 L 277.5 207.952 Z">
      <title>Logo Inverted</title>
    </path>
  </g>
  <g style="visibility: hidden;">
    <title>GBC</title>
    <path style="fill: none; stroke: rgb(255, 255, 255); stroke-width: 8px;" d="M 144.465 120.816 L 336.746 120.816 C 339.57 120.816 341.86 123.105 341.86 125.93 L 341.86 133.089 L 357.202 133.089 C 360.027 133.089 362.316 135.38 362.316 138.204 L 362.316 141.613 L 362.326 141.613 L 362.326 374.135 C 362.326 376.959 360.036 379.25 357.212 379.25 L 142.76 379.25 C 139.936 379.25 137.645 376.959 137.645 374.135 L 137.645 127.634 C 137.645 123.869 140.698 120.816 144.465 120.816 Z">
      <title>Cartridge</title>
    </path>
    <rect style="fill: none; stroke: rgb(255, 255, 255); stroke-width: 8px;" x="167.486" y="195.42" width="165" height="148" rx="5" ry="5">
      <title>Sticker</title>
    </rect>
    <path class="st0" d="M 255.256 227.472 L 255.058 227.076 L 244.957 227.076 L 202.486 311.763 L 258.033 311.763 L 250.425 296.591 L 225.379 296.591 C 229.515 288.36 233.694 280.002 237.732 271.927 C 241.742 263.923 245.863 255.649 249.972 247.504 L 282.045 311.337 L 282.243 311.735 L 297.486 311.735 L 255.256 227.472 Z" style="fill: rgb(255, 255, 255);">
      <title>Logo</title>
    </path>
    <path d="M 172.486 195.42 L 327.486 195.42 C 330.247 195.42 332.486 197.659 332.486 200.42 L 332.486 338.42 C 332.486 341.181 330.247 343.42 327.486 343.42 L 172.486 343.42 C 169.725 343.42 167.486 341.181 167.486 338.42 L 167.486 200.42 C 167.486 197.659 169.725 195.42 172.486 195.42 Z M 255.256 227.472 L 255.058 227.076 L 244.957 227.076 L 202.486 311.763 L 258.033 311.763 L 250.425 296.591 L 225.379 296.591 C 229.515 288.36 233.694 280.002 237.732 271.927 C 241.742 263.923 245.863 255.649 249.972 247.504 L 282.045 311.337 L 282.243 311.735 L 297.486 311.735 Z" style="stroke-width: 8px; fill: rgb(255, 255, 255);">
      <title>Logo Inverted</title>
    </path>
  </g>
  <g transform="matrix(1, 0, 0, 1, 0, -1.5)" style="visibility: hidden;">
    <title>GBA</title>
    <path style="fill: none; stroke: rgb(255, 255, 255); stroke-width: 8px;" d="M 403 340 C 403 343.314 400.314 346 397 346 L 103 346 C 99.686 346 97 343.314 97 340 L 97 196 L 90 196 C 88.343 196 87 194.657 87 193 L 87 169 C 87 162.373 92.373 157 99 157 L 401 157 C 407.627 157 413 162.373 413 169 L 413 193 C 413 194.657 411.657 196 410 196 L 403 196 Z">
      <title>Cartridge</title>
    </path>
    <rect style="fill: none; stroke: rgb(255, 255, 255); stroke-width: 8px;" x="131" y="200" width="238" height="126" rx="10" ry="10">
      <title>Sticker</title>
    </rect>
    <path class="st0" d="M 254.977 223.374 L 254.791 223 L 245.248 223 L 205.128 303 L 257.601 303 L 250.414 288.668 L 226.754 288.668 C 230.661 280.892 234.609 272.997 238.423 265.369 C 242.211 257.807 246.104 249.992 249.985 242.297 L 280.283 302.598 L 280.472 302.973 L 294.871 302.973 L 254.977 223.374 Z" style="fill: rgb(255, 255, 255);">
      <title>Logo</title>
    </path>
    <path d="M 141 200 L 359 200 C 364.523 200 369 204.477 369 210 L 369 316 C 369 321.523 364.523 326 359 326 L 141 326 C 135.477 326 131 321.523 131 316 L 131 210 C 131 204.477 135.477 200 141 200 Z M 254.977 223.374 L 254.791 223 L 245.248 223 L 205.128 303 L 257.601 303 L 250.414 288.668 L 226.754 288.668 C 230.661 280.892 234.609 272.997 238.423 265.369 C 242.211 257.807 246.104 249.992 249.985 242.297 L 280.283 302.598 L 280.472 302.973 L 294.871 302.973 Z" style="stroke-width: 8px; fill: rgb(255, 255, 255);">
      <title>Logo Inverted</title>
    </path>
  </g>
  <g transform="matrix(1, 0, 0, 1, 5, 10)" style="visibility: hidden;">
    <title>N64</title>
    <path style="fill: none; stroke: rgb(255, 255, 255); stroke-width: 8px;" d="M 90.446 168.931 C 91.066 168.047 91.411 167.76 92.094 167.376 C 125.117 149.057 181.275 137 245 137 C 308.725 137 364.883 149.057 397.906 167.376 C 398.589 167.76 398.934 168.047 399.554 168.931 C 400.002 169.883 399.945 169.942 400 171.211 L 400 338 C 400 340.761 397.761 343 395 343 L 95 343 C 92.239 343 90 340.761 90 338 L 90 171.211 C 90.055 169.942 89.998 169.883 90.446 168.931 Z">
      <title>Cartridge</title>
    </path>
    <path d="M 178.868 158.292 C 205.946 153.047 216.371 152.883 245 152 C 273.629 152.883 284.054 153.047 311.132 158.292 C 313.659 158.782 315.975 159.942 317.728 161.601 C 319.512 163.224 320.706 165.484 320.953 168.021 C 320.984 168.342 321 168.669 321 169 L 321 316 C 321 321.523 316.523 326 311 326 L 179 326 C 173.477 326 169 321.523 169 316 L 169 169 C 169 168.669 169.016 168.342 169.047 168.021 C 169.294 165.484 170.488 163.224 172.272 161.601 C 174.025 159.942 176.341 158.782 178.868 158.292 Z" style="fill: none; stroke: rgb(255, 255, 255); stroke-width: 8px;">
      <title>Sticker</title>
    </path>
    <path class="st0" d="M 250.548 194.845 L 250.339 194.428 L 239.707 194.428 L 195 283.573 L 253.47 283.573 L 245.463 267.601 L 219.098 267.601 C 223.452 258.938 227.851 250.139 232.101 241.639 C 236.322 233.214 240.66 224.505 244.985 215.931 L 278.746 283.124 L 278.955 283.543 L 295 283.543 L 250.548 194.845 Z" style="fill: rgb(255, 255, 255);">
      <title>Logo</title>
    </path>
    <path d="M 178.868 158.292 C 205.946 153.047 216.371 152.883 245 152 C 273.629 152.883 284.054 153.047 311.132 158.292 C 313.659 158.782 315.975 159.942 317.728 161.601 C 319.512 163.224 320.706 165.484 320.953 168.021 C 320.984 168.342 321 168.669 321 169 L 321 316 C 321 321.523 316.523 326 311 326 L 179 326 C 173.477 326 169 321.523 169 316 L 169 169 C 169 168.669 169.016 168.342 169.047 168.021 C 169.294 165.484 170.488 163.224 172.272 161.601 C 174.025 159.942 176.341 158.782 178.868 158.292 Z M 250.548 194.845 L 250.339 194.428 L 239.707 194.428 L 195 283.573 L 253.47 283.573 L 245.463 267.601 L 219.098 267.601 C 223.452 258.938 227.851 250.139 232.101 241.639 C 236.322 233.214 240.66 224.505 244.985 215.931 L 278.746 283.124 L 278.955 283.543 L 295 283.543 Z" style="stroke-width: 8px; fill: rgb(255, 255, 255);">
      <title>Logo Inverted</title>
    </path>
  </g>
  <g transform="matrix(1, 0, 0, 1, -0.5, -17)" style="">
    <title>NDS</title>
    <path style="fill: none; stroke: rgb(255, 255, 255); stroke-width: 8px;" d="M 149 145 H 352 A 10 10 0 0 1 362 155 V 382 A 7 7 0 0 1 355 389 H 169 A 30 30 0 0 1 139 359 V 155 A 10 10 0 0 1 149 145 Z" bx:shape="rect 139 145 223 244 10 10 7 30 1@7fd0bc39">
      <title>Cartridge</title>
    </path>
    <path style="fill: none; stroke: rgb(255, 255, 255); stroke-width: 8px;" d="M 172 167 L 328 167 C 330.761 167 333 169.239 333 172 L 333 350 C 333 352.761 330.761 355 328 355 L 184.341 355 L 167 337.659 L 167 172 C 167 169.239 169.239 167 172 167 Z">
      <title>Sticker</title>
    </path>
    <path class="st0" d="M 255.547 209.417 L 255.339 209 L 244.706 209 L 200 298.145 L 258.471 298.145 L 250.463 282.174 L 224.097 282.174 C 228.452 273.509 232.851 264.712 237.101 256.212 C 241.322 247.786 245.661 239.077 249.985 230.503 L 283.745 297.696 L 283.955 298.115 L 300 298.115 L 255.547 209.417 Z" style="fill: rgb(255, 255, 255);">
      <title>Logo</title>
    </path>
    <path style="stroke-width: 8px; fill: rgb(255, 255, 255); visibility: hidden;" d="M 172 167 L 328 167 C 330.761 167 333 169.239 333 172 L 333 350 C 333 352.761 330.761 355 328 355 L 184.341 355 L 167 337.659 L 167 172 C 167 169.239 169.239 167 172 167 Z M 255.547 209.417 L 255.339 209 L 244.706 209 L 200 298.145 L 258.471 298.145 L 250.463 282.174 L 224.097 282.174 C 228.452 273.509 232.851 264.712 237.101 256.212 C 241.322 247.786 245.661 239.077 249.985 230.503 L 283.745 297.696 L 283.955 298.115 L 300 298.115 Z">
      <title>Logo Inverted</title>
    </path>
  </g>
</svg>